# xmcd CD database file
#
# Track frame offsets:
#	150
#	13092
#	26182
#	42045
#	68551
#	86815
#	103554
#	123916
#	140879
#	154708
#	169249
#	192454
#	208182
#
# Disc length: 2869 seconds
#
# Revision: 1
# Processed by: cddbd v1.5.1PL0 Copyright (c) Steve Scherf et al.
# Submitted via: CDex 1.51
#
DISCID=b80b330d
DTITLE=太陽族 - ジェリービーン
DYEAR=2004
DGENRE=Punk Rock
TTITLE0=ロミオとジュリエット
TTITLE1=きこえるよ
TTITLE2=ジェリービーン
TTITLE3=スキ
TTITLE4=もう少しだけ
TTITLE5=ホタルの恋の歌
TTITLE6=パレード
TTITLE7=もし今夜が雨ならば
TTITLE8=旅日記
TTITLE9=最後の最後で
TTITLE10=帰り道
TTITLE11=パニックワールド
TTITLE12=ボーナストラック
EXTD=YEAR: 2004
EXTT0=
EXTT1=
EXTT2=
EXTT3=
EXTT4=
EXTT5=
EXTT6=
EXTT7=
EXTT8=
EXTT9=
EXTT10=
EXTT11=
EXTT12=
PLAYORDER=
